<svg width="306" height="62" viewBox="0 0 306 62" fill="none" xmlns="http://www.w3.org/2000/svg">
<path d="M33 0H273V37C273 50.8071 261.807 62 248 62H58C44.1929 62 33 50.8071 33 37V0Z" fill="#1D9BF0"/>
<path d="M57.9173 38H69.7163V34.964H61.6433V21.9H57.9173V38ZM76.6709 25.442C74.6929 25.442 72.6919 25.971 71.3349 26.937L72.6229 29.444C73.5199 28.731 74.8769 28.294 76.1879 28.294C78.1199 28.294 79.0399 29.191 79.0399 30.732H76.1879C72.4159 30.732 70.8749 32.25 70.8749 34.435C70.8749 36.574 72.5999 38.184 75.4979 38.184C77.3149 38.184 78.6029 37.586 79.2699 36.459V38H82.6279V30.939C82.6279 27.19 80.4429 25.442 76.6709 25.442ZM76.3949 35.769C75.1299 35.769 74.3709 35.171 74.3709 34.274C74.3709 33.446 74.8999 32.825 76.5789 32.825H79.0399V34.09C78.6259 35.217 77.5909 35.769 76.3949 35.769ZM90.0382 38.184C93.7412 38.184 95.8802 36.551 95.8802 34.251C95.8802 29.375 88.4052 31.422 88.4052 29.306C88.4052 28.662 89.0952 28.156 90.7052 28.156C91.8322 28.156 93.0512 28.386 94.2702 29.076L95.4662 26.523C94.2932 25.833 92.4072 25.442 90.7052 25.442C87.0942 25.442 84.9782 27.098 84.9782 29.444C84.9782 34.389 92.4532 32.319 92.4532 34.343C92.4532 35.033 91.8322 35.47 90.1762 35.47C88.6582 35.47 86.9792 34.987 85.8752 34.274L84.6792 36.85C85.8292 37.609 87.9452 38.184 90.0382 38.184ZM105.109 34.872C104.718 35.171 104.189 35.332 103.66 35.332C102.694 35.332 102.119 34.757 102.119 33.699V28.662H105.201V25.902H102.119V22.889H98.531V25.902H96.622V28.662H98.531V33.745C98.531 36.689 100.233 38.184 103.154 38.184C104.258 38.184 105.339 37.931 106.075 37.402L105.109 34.872ZM121.618 34.872C121.227 35.171 120.698 35.332 120.169 35.332C119.203 35.332 118.628 34.757 118.628 33.699V28.662H121.71V25.902H118.628V22.889H115.04V25.902H113.131V28.662H115.04V33.745C115.04 36.689 116.742 38.184 119.663 38.184C120.767 38.184 121.848 37.931 122.584 37.402L121.618 34.872ZM128.025 27.259V25.626H124.598V38H128.186V32.158C128.186 29.789 129.497 28.708 131.475 28.708C131.751 28.708 131.981 28.731 132.28 28.754V25.442C130.371 25.442 128.899 26.063 128.025 27.259ZM139.337 25.442C137.359 25.442 135.358 25.971 134.001 26.937L135.289 29.444C136.186 28.731 137.543 28.294 138.854 28.294C140.786 28.294 141.706 29.191 141.706 30.732H138.854C135.082 30.732 133.541 32.25 133.541 34.435C133.541 36.574 135.266 38.184 138.164 38.184C139.981 38.184 141.269 37.586 141.936 36.459V38H145.294V30.939C145.294 27.19 143.109 25.442 139.337 25.442ZM139.061 35.769C137.796 35.769 137.037 35.171 137.037 34.274C137.037 33.446 137.566 32.825 139.245 32.825H141.706V34.09C141.292 35.217 140.257 35.769 139.061 35.769ZM156.062 25.442C154.383 25.442 152.934 26.017 151.968 27.075V25.626H148.541V38H152.129V31.882C152.129 29.605 153.371 28.547 155.096 28.547C156.683 28.547 157.603 29.467 157.603 31.468V38H161.191V30.916C161.191 27.144 158.983 25.442 156.062 25.442ZM168.607 38.184C172.31 38.184 174.449 36.551 174.449 34.251C174.449 29.375 166.974 31.422 166.974 29.306C166.974 28.662 167.664 28.156 169.274 28.156C170.401 28.156 171.62 28.386 172.839 29.076L174.035 26.523C172.862 25.833 170.976 25.442 169.274 25.442C165.663 25.442 163.547 27.098 163.547 29.444C163.547 34.389 171.022 32.319 171.022 34.343C171.022 35.033 170.401 35.47 168.745 35.47C167.227 35.47 165.548 34.987 164.444 34.274L163.248 36.85C164.398 37.609 166.514 38.184 168.607 38.184ZM181.653 25.442C179.675 25.442 177.674 25.971 176.317 26.937L177.605 29.444C178.502 28.731 179.859 28.294 181.17 28.294C183.102 28.294 184.022 29.191 184.022 30.732H181.17C177.398 30.732 175.857 32.25 175.857 34.435C175.857 36.574 177.582 38.184 180.48 38.184C182.297 38.184 183.585 37.586 184.252 36.459V38H187.61V30.939C187.61 27.19 185.425 25.442 181.653 25.442ZM181.377 35.769C180.112 35.769 179.353 35.171 179.353 34.274C179.353 33.446 179.882 32.825 181.561 32.825H184.022V34.09C183.608 35.217 182.573 35.769 181.377 35.769ZM196.972 38.184C199.571 38.184 201.618 37.034 202.515 35.056L199.732 33.538C199.065 34.734 198.076 35.24 196.949 35.24C195.132 35.24 193.706 33.975 193.706 31.813C193.706 29.651 195.132 28.386 196.949 28.386C198.076 28.386 199.065 28.915 199.732 30.088L202.515 28.593C201.618 26.569 199.571 25.442 196.972 25.442C192.947 25.442 190.072 28.087 190.072 31.813C190.072 35.539 192.947 38.184 196.972 38.184ZM211.776 34.872C211.385 35.171 210.856 35.332 210.327 35.332C209.361 35.332 208.786 34.757 208.786 33.699V28.662H211.868V25.902H208.786V22.889H205.198V25.902H203.289V28.662H205.198V33.745C205.198 36.689 206.9 38.184 209.821 38.184C210.925 38.184 212.006 37.931 212.742 37.402L211.776 34.872ZM216.55 23.901C217.884 23.901 218.781 23.027 218.781 21.831C218.781 20.727 217.884 19.899 216.55 19.899C215.216 19.899 214.319 20.773 214.319 21.9C214.319 23.027 215.216 23.901 216.55 23.901ZM214.756 38H218.344V25.626H214.756V38ZM227.562 38.184C231.495 38.184 234.347 35.539 234.347 31.813C234.347 28.087 231.495 25.442 227.562 25.442C223.629 25.442 220.754 28.087 220.754 31.813C220.754 35.539 223.629 38.184 227.562 38.184ZM227.562 35.24C225.768 35.24 224.388 33.952 224.388 31.813C224.388 29.674 225.768 28.386 227.562 28.386C229.356 28.386 230.713 29.674 230.713 31.813C230.713 33.952 229.356 35.24 227.562 35.24ZM244.266 25.442C242.587 25.442 241.138 26.017 240.172 27.075V25.626H236.745V38H240.333V31.882C240.333 29.605 241.575 28.547 243.3 28.547C244.887 28.547 245.807 29.467 245.807 31.468V38H249.395V30.916C249.395 27.144 247.187 25.442 244.266 25.442Z" fill="white"/>
<path d="M306 6.8858e-05C288.278 6.8858e-05 273 16.5002 273 33V6.8858e-05C273 6.8858e-05 288.278 -8.60725e-05 306 6.8858e-05Z" fill="#1D9BF0"/>
<path d="M0 6.8858e-05C17.7222 6.8858e-05 33 16.5002 33 33V6.8858e-05C33 6.8858e-05 17.7222 -8.60725e-05 0 6.8858e-05Z" fill="#1D9BF0"/>
</svg>
