<svg width="120" height="28" viewBox="0 0 120 28" fill="none" xmlns="http://www.w3.org/2000/svg">
<rect width="120" height="28" rx="14" fill="#00DE66"/>
<path d="M43.694 5.9H37.415V22H39.715V17.124H43.694C47.88 17.124 50.41 15.008 50.41 11.512C50.41 8.016 47.88 5.9 43.694 5.9ZM43.625 15.123H39.715V7.901H43.625C46.569 7.901 48.11 9.212 48.11 11.512C48.11 13.812 46.569 15.123 43.625 15.123ZM57.7937 9.695C55.8387 9.695 54.0217 10.247 52.7567 11.259L53.6767 12.915C54.6197 12.11 56.0917 11.604 57.5407 11.604C59.7257 11.604 60.8067 12.685 60.8067 14.548V14.985H57.3107C53.6767 14.985 52.4117 16.595 52.4117 18.55C52.4117 20.666 54.1597 22.138 56.9197 22.138C58.8287 22.138 60.1857 21.494 60.9217 20.39V22H63.0147V14.64C63.0147 11.305 61.1287 9.695 57.7937 9.695ZM57.2877 20.436C55.6087 20.436 54.5967 19.677 54.5967 18.458C54.5967 17.423 55.2177 16.572 57.4027 16.572H60.8067V18.274C60.2547 19.677 58.9437 20.436 57.2877 20.436ZM68.2048 7.464C69.0788 7.464 69.6998 6.82 69.6998 5.992C69.6998 5.21 69.0558 4.589 68.2048 4.589C67.3538 4.589 66.7098 5.233 66.7098 6.038C66.7098 6.843 67.3538 7.464 68.2048 7.464ZM67.1008 22H69.3088V9.81H67.1008V22ZM82.8166 4.934V11.65C81.8046 10.339 80.2866 9.695 78.5616 9.695C74.9966 9.695 72.3976 12.179 72.3976 15.905C72.3976 19.631 74.9966 22.138 78.5616 22.138C80.3556 22.138 81.9196 21.448 82.9086 20.068V22H85.0246V4.934H82.8166ZM78.7456 20.206C76.3996 20.206 74.6286 18.504 74.6286 15.905C74.6286 13.306 76.3996 11.627 78.7456 11.627C81.0686 11.627 82.8396 13.306 82.8396 15.905C82.8396 18.504 81.0686 20.206 78.7456 20.206Z" fill="white"/>
</svg>
